<svg width="21" height="18" viewBox="0 0 21 18" fill="none" xmlns="http://www.w3.org/2000/svg">
<path d="M1 1H6.5C7.47246 1 8.40509 1.36875 9.09273 2.02513C9.78036 2.6815 10.1667 3.57174 10.1667 4.5V16.75C10.1667 16.0538 9.87694 15.3861 9.36121 14.8938C8.84549 14.4016 8.14601 14.125 7.41667 14.125H1V1Z" stroke="white" stroke-width="1.5" stroke-linecap="round" stroke-linejoin="round"/>
<path d="M19.3334 1H13.8334C12.8609 1 11.9283 1.36875 11.2406 2.02513C10.553 2.6815 10.1667 3.57174 10.1667 4.5V16.75C10.1667 16.0538 10.4564 15.3861 10.9721 14.8938C11.4879 14.4016 12.1873 14.125 12.9167 14.125H19.3334V1Z" stroke="white" stroke-width="1.5" stroke-linecap="round" stroke-linejoin="round"/>
</svg>
