<svg width="21" height="21" viewBox="0 0 21 21" fill="none" xmlns="http://www.w3.org/2000/svg">
<path d="M2.625 15.75V10.5C2.625 8.41142 3.45469 6.40838 4.93153 4.93153C6.40838 3.45469 8.41142 2.625 10.5 2.625C12.5886 2.625 14.5916 3.45469 16.0685 4.93153C17.5453 6.40838 18.375 8.41142 18.375 10.5V15.75" stroke="white" stroke-width="1.5" stroke-linecap="round" stroke-linejoin="round"/>
<path d="M18.375 16.625C18.375 17.0891 18.1906 17.5342 17.8624 17.8624C17.5342 18.1906 17.0891 18.375 16.625 18.375H15.75C15.2859 18.375 14.8408 18.1906 14.5126 17.8624C14.1844 17.5342 14 17.0891 14 16.625V14C14 13.5359 14.1844 13.0908 14.5126 12.7626C14.8408 12.4344 15.2859 12.25 15.75 12.25H18.375V16.625ZM2.625 16.625C2.625 17.0891 2.80937 17.5342 3.13756 17.8624C3.46575 18.1906 3.91087 18.375 4.375 18.375H5.25C5.71413 18.375 6.15925 18.1906 6.48744 17.8624C6.81563 17.5342 7 17.0891 7 16.625V14C7 13.5359 6.81563 13.0908 6.48744 12.7626C6.15925 12.4344 5.71413 12.25 5.25 12.25H2.625V16.625Z" stroke="white" stroke-width="1.5" stroke-linecap="round" stroke-linejoin="round"/>
</svg>
