<svg width="22" height="28" viewBox="0 0 22 28" fill="none" xmlns="http://www.w3.org/2000/svg">
<path d="M20.4042 10.4042C21.2841 10.4042 22 9.68855 22 8.80865C22 7.92874 21.2841 7.21286 20.4042 7.21286H18.0591C18.0966 6.43826 17.8268 5.69493 17.3403 5.12755C17.412 5.09457 17.483 5.05947 17.5522 5.01947C18.1317 4.68483 18.5463 4.14467 18.7195 3.49836L18.8118 3.15393C18.985 2.50761 18.8961 1.83237 18.5614 1.25285C18.2268 0.67334 17.6866 0.258704 17.0403 0.0855306H17.0401C15.7062 -0.271665 14.3295 0.522718 13.9719 1.85726L13.8796 2.20148C13.7064 2.84779 13.7953 3.52304 14.13 4.10255C14.1538 4.14382 14.1789 4.18403 14.2049 4.2236C13.9804 4.29359 13.7621 4.39039 13.5547 4.51485C13.2784 4.68036 13.0358 4.88566 12.8314 5.12159L10.9773 6.33593C10.4342 6.69164 10.2344 7.37901 10.5025 7.97022L11.3709 9.88704L10.8946 11.9302C10.8944 11.9311 10.8946 11.9315 10.8944 11.9324C10.8854 11.9715 10.8803 12.0121 10.8803 12.054V16.8467C10.8803 16.9744 10.9246 17.0916 10.998 17.1844V19.2739H7.70151C7.60918 19.202 7.49324 19.1588 7.36708 19.1588H5.96361C5.00584 19.1588 4.22656 19.9381 4.22656 20.8959V24.2817C4.22656 24.5823 4.47037 24.8263 4.77119 24.8263H5.23603C6.52121 24.8263 7.59748 23.9151 7.85362 22.705H12.8225C13.9694 22.705 14.9435 21.9549 15.2818 20.9195L15.4005 21.0869V24.3666C15.306 24.4644 15.2477 24.5974 15.2477 24.7442V26.1477C15.2477 27.1054 16.027 27.8847 16.9848 27.8847H20.3706C20.6712 27.8847 20.9152 27.6409 20.9152 27.3401V26.8752C20.9152 25.6788 20.1257 24.6633 19.0403 24.3221V19.9038C19.0403 19.3477 18.9529 18.7978 18.7801 18.2693L18.1072 16.2111L17.1294 12.0447L17.4564 10.4042H20.4042ZM14.9318 2.48336L15.0239 2.13914C15.1933 1.50708 15.767 1.08947 16.3921 1.08947C16.5131 1.08947 16.6361 1.105 16.7582 1.13776C17.1237 1.23583 17.429 1.47006 17.6181 1.79769C17.8072 2.1251 17.8575 2.50676 17.7596 2.87204L17.6673 3.21647C17.5694 3.58175 17.3352 3.88725 17.0075 4.07617C16.695 4.25679 16.3336 4.3104 15.9838 4.22998C15.9417 4.21658 15.8991 4.20424 15.856 4.19275C15.8502 4.19105 15.8443 4.18999 15.8385 4.1885C15.5151 4.07766 15.2458 3.85683 15.0733 3.55793C14.8842 3.23052 14.8339 2.84885 14.9318 2.48336ZM15.5298 5.23413C15.5698 5.2469 15.6102 5.25881 15.6511 5.26987C15.6598 5.27221 15.6687 5.2737 15.6775 5.27604C16.5746 5.57218 17.1237 6.50017 16.9367 7.439L16.8948 7.6526C16.8633 7.81237 16.905 7.97788 17.0086 8.10361C17.112 8.22934 17.2662 8.3021 17.4292 8.3021H20.4044C20.6835 8.3021 20.9107 8.52931 20.9107 8.80865C20.9107 9.08776 20.6835 9.31497 20.4044 9.31497H17.0197C17.0126 9.31497 17.0054 9.31497 16.9984 9.31497H16.3655C15.6766 9.31497 15.0609 8.85332 14.8682 8.19211C14.7839 7.90342 14.4814 7.73706 14.1929 7.82173C13.904 7.90597 13.7383 8.20828 13.8226 8.49698C14.1481 9.61367 15.1839 10.3955 16.3457 10.4042L16.1255 11.5094H12.111L13.2467 6.63973C13.312 6.35954 13.4369 6.10447 13.6111 5.88725C13.6162 5.8813 13.6213 5.87513 13.6262 5.86896C13.7617 5.70429 13.926 5.56218 14.1147 5.449C14.5442 5.19158 15.045 5.11627 15.5298 5.23413ZM17.7447 18.6078C17.8817 19.0267 17.9511 19.4628 17.9511 19.9036V24.1993H16.4897V20.9135C16.4897 20.8008 16.4546 20.6908 16.3895 20.5987L15.4094 19.2152V17.3022L17.212 16.978L17.7447 18.6078ZM11.9694 16.3021V12.5987H15.005L14.4016 16.3021H11.9694ZM16.1406 12.5987L16.921 15.9236L15.5262 16.1745L16.1085 12.5987H16.1406ZM11.4945 7.5207C11.4496 7.42177 11.483 7.30668 11.5739 7.24711L12.0608 6.92821L11.7772 8.14467L11.4945 7.5207ZM5.31581 23.7349V20.8959C5.31581 20.5385 5.60642 20.2479 5.96361 20.2479H6.82246V22.1504C6.82246 22.9984 6.15359 23.6932 5.31581 23.7349ZM12.8225 21.6158H7.9117V20.3632H11.5426C11.8434 20.3632 12.0872 20.1194 12.0872 19.8185V17.3913H14.3202V20.1181C14.3202 20.944 13.6483 21.6158 12.8225 21.6158ZM19.8241 26.7955H16.9848C16.6276 26.7955 16.337 26.5048 16.337 26.1477V25.2886H18.2393C19.0873 25.2886 19.7821 25.9577 19.8241 26.7955Z" fill="white"/>
<path d="M13.2346 26.7954H6.5706C6.26999 26.7954 6.02597 27.0395 6.02597 27.3401C6.02597 27.6409 6.26999 27.8847 6.5706 27.8847H13.2346C13.5352 27.8847 13.7792 27.6409 13.7792 27.3401C13.7792 27.0395 13.5354 26.7954 13.2346 26.7954Z" fill="white"/>
<path d="M4.68717 26.7954C4.544 26.7954 4.40337 26.8537 4.30211 26.955C4.20084 27.0563 4.14255 27.1969 4.14255 27.3401C4.14255 27.4832 4.20084 27.6239 4.30211 27.7251C4.40337 27.8264 4.544 27.8847 4.68717 27.8847C4.83035 27.8847 4.97097 27.8264 5.07224 27.7251C5.17351 27.6239 5.2318 27.4832 5.2318 27.3401C5.2318 27.1969 5.17351 27.0563 5.07224 26.955C4.97076 26.8537 4.83035 26.7954 4.68717 26.7954Z" fill="white"/>
<path d="M2.54185 12.5986C2.68502 12.5986 2.82501 12.5404 2.92691 12.4391C3.02818 12.3378 3.08647 12.1972 3.08647 12.054C3.08647 11.9108 3.02818 11.7702 2.92691 11.669C2.82565 11.5677 2.68502 11.5094 2.54185 11.5094C2.39867 11.5094 2.25805 11.5677 2.15678 11.669C2.05488 11.7702 1.99722 11.9108 1.99722 12.054C1.99722 12.1972 2.05488 12.3378 2.15678 12.4391C2.25805 12.5404 2.39867 12.5986 2.54185 12.5986Z" fill="white"/>
<path d="M7.91174 15.1039C7.91174 14.8031 7.66793 14.5593 7.36712 14.5593H0.544625C0.244017 14.5593 0 14.8031 0 15.1039C0 15.4047 0.244017 15.6485 0.544625 15.6485H7.36712C7.66793 15.6485 7.91174 15.4047 7.91174 15.1039Z" fill="white"/>
<path d="M4.72013 12.5986H8.38741C8.68802 12.5986 8.93204 12.3546 8.93204 12.054C8.93204 11.7532 8.68802 11.5094 8.38741 11.5094H4.72013C4.41952 11.5094 4.17551 11.7532 4.17551 12.054C4.17551 12.3546 4.41952 12.5986 4.72013 12.5986Z" fill="white"/>
</svg>
